<svg width="148" height="40" viewBox="0 0 148 40" fill="none" xmlns="http://www.w3.org/2000/svg">
<path d="M39.448 30.2212C39.288 30.2212 39.152 30.1652 39.04 30.0532C38.928 29.9412 38.872 29.8052 38.872 29.6452V14.0212C38.872 13.8452 38.928 13.7012 39.04 13.5892C39.152 13.4772 39.288 13.4212 39.448 13.4212H49.864C50.04 13.4212 50.184 13.4772 50.296 13.5892C50.408 13.7012 50.464 13.8452 50.464 14.0212V15.7012C50.464 15.8772 50.408 16.0212 50.296 16.1332C50.184 16.2292 50.04 16.2772 49.864 16.2772H42.16V20.8372H49.384C49.56 20.8372 49.704 20.8932 49.816 21.0052C49.928 21.1172 49.984 21.2612 49.984 21.4372V23.1172C49.984 23.2772 49.928 23.4132 49.816 23.5252C49.704 23.6372 49.56 23.6932 49.384 23.6932H42.16V29.6452C42.16 29.8052 42.104 29.9412 41.992 30.0532C41.88 30.1652 41.736 30.2212 41.56 30.2212H39.448ZM57.4426 30.4612C56.4666 30.4612 55.6186 30.2452 54.8986 29.8132C54.1946 29.3652 53.6506 28.7412 53.2666 27.9412C52.8826 27.1252 52.6906 26.1652 52.6906 25.0612V18.3172C52.6906 18.1572 52.7466 18.0212 52.8586 17.9092C52.9706 17.7972 53.1066 17.7412 53.2666 17.7412H55.3786C55.5546 17.7412 55.6906 17.7972 55.7866 17.9092C55.8986 18.0212 55.9546 18.1572 55.9546 18.3172V24.9172C55.9546 26.9012 56.8266 27.8932 58.5706 27.8932C59.4026 27.8932 60.0586 27.6292 60.5386 27.1012C61.0346 26.5732 61.2826 25.8452 61.2826 24.9172V18.3172C61.2826 18.1572 61.3386 18.0212 61.4506 17.9092C61.5626 17.7972 61.6986 17.7412 61.8586 17.7412H63.9706C64.1306 17.7412 64.2666 17.7972 64.3786 17.9092C64.4906 18.0212 64.5466 18.1572 64.5466 18.3172V29.6452C64.5466 29.8052 64.4906 29.9412 64.3786 30.0532C64.2666 30.1652 64.1306 30.2212 63.9706 30.2212H62.0266C61.8506 30.2212 61.7066 30.1652 61.5946 30.0532C61.4986 29.9412 61.4506 29.8052 61.4506 29.6452V28.6612C61.0186 29.2212 60.4826 29.6612 59.8426 29.9812C59.2026 30.3012 58.4026 30.4612 57.4426 30.4612ZM68.2928 30.2212C68.1328 30.2212 67.9968 30.1652 67.8848 30.0532C67.7728 29.9412 67.7168 29.8052 67.7168 29.6452V18.3412C67.7168 18.1652 67.7728 18.0212 67.8848 17.9092C67.9968 17.7972 68.1328 17.7412 68.2928 17.7412H70.2368C70.3968 17.7412 70.5328 17.7972 70.6448 17.9092C70.7728 18.0212 70.8368 18.1652 70.8368 18.3412V19.3252C71.2048 18.8132 71.6768 18.4212 72.2528 18.1492C72.8448 17.8772 73.5248 17.7412 74.2928 17.7412H75.2768C75.4528 17.7412 75.5888 17.7972 75.6848 17.9092C75.7968 18.0212 75.8528 18.1572 75.8528 18.3172V20.0452C75.8528 20.2052 75.7968 20.3412 75.6848 20.4532C75.5888 20.5652 75.4528 20.6212 75.2768 20.6212H73.4048C72.6368 20.6212 72.0368 20.8372 71.6048 21.2692C71.1888 21.7012 70.9808 22.2932 70.9808 23.0452V29.6452C70.9808 29.8052 70.9248 29.9412 70.8128 30.0532C70.7008 30.1652 70.5568 30.2212 70.3808 30.2212H68.2928ZM78.3006 30.2212C78.1406 30.2212 78.0046 30.1652 77.8926 30.0532C77.7806 29.9412 77.7246 29.8052 77.7246 29.6452V18.3172C77.7246 18.1572 77.7806 18.0212 77.8926 17.9092C78.0046 17.7972 78.1406 17.7412 78.3006 17.7412H80.2686C80.4286 17.7412 80.5646 17.7972 80.6766 17.9092C80.7886 18.0212 80.8446 18.1572 80.8446 18.3172V19.3012C81.2606 18.7892 81.7886 18.3652 82.4286 18.0292C83.0846 17.6772 83.8926 17.5012 84.8526 17.5012C85.8286 17.5012 86.6766 17.7252 87.3966 18.1732C88.1166 18.6052 88.6686 19.2212 89.0526 20.0212C89.4526 20.8212 89.6526 21.7812 89.6526 22.9012V29.6452C89.6526 29.8052 89.5966 29.9412 89.4846 30.0532C89.3726 30.1652 89.2366 30.2212 89.0766 30.2212H86.9646C86.8046 30.2212 86.6686 30.1652 86.5566 30.0532C86.4446 29.9412 86.3886 29.8052 86.3886 29.6452V23.0452C86.3886 22.1172 86.1566 21.3892 85.6926 20.8612C85.2446 20.3332 84.5886 20.0692 83.7246 20.0692C82.8926 20.0692 82.2286 20.3332 81.7326 20.8612C81.2366 21.3892 80.9886 22.1172 80.9886 23.0452V29.6452C80.9886 29.8052 80.9326 29.9412 80.8206 30.0532C80.7086 30.1652 80.5726 30.2212 80.4126 30.2212H78.3006ZM93.2772 30.2212C93.1172 30.2212 92.9812 30.1652 92.8692 30.0532C92.7572 29.9412 92.7012 29.8052 92.7012 29.6452V18.3172C92.7012 18.1572 92.7572 18.0212 92.8692 17.9092C92.9812 17.7972 93.1172 17.7412 93.2772 17.7412H95.2692C95.4452 17.7412 95.5812 17.7972 95.6772 17.9092C95.7892 18.0212 95.8452 18.1572 95.8452 18.3172V29.6452C95.8452 29.8052 95.7892 29.9412 95.6772 30.0532C95.5812 30.1652 95.4452 30.2212 95.2692 30.2212H93.2772ZM93.1812 15.6772C93.0052 15.6772 92.8612 15.6292 92.7492 15.5332C92.6532 15.4212 92.6052 15.2772 92.6052 15.1012V13.3732C92.6052 13.2132 92.6532 13.0772 92.7492 12.9652C92.8612 12.8532 93.0052 12.7972 93.1812 12.7972H95.3652C95.5412 12.7972 95.6852 12.8532 95.7972 12.9652C95.9092 13.0772 95.9652 13.2132 95.9652 13.3732V15.1012C95.9652 15.2772 95.9092 15.4212 95.7972 15.5332C95.6852 15.6292 95.5412 15.6772 95.3652 15.6772H93.1812ZM99.6293 30.2212C99.4693 30.2212 99.3333 30.1652 99.2213 30.0532C99.1093 29.9412 99.0533 29.8052 99.0533 29.6452V13.7572C99.0533 13.5972 99.1093 13.4612 99.2213 13.3492C99.3333 13.2372 99.4693 13.1812 99.6293 13.1812H101.573C101.749 13.1812 101.885 13.2372 101.981 13.3492C102.093 13.4612 102.149 13.5972 102.149 13.7572V21.9652L106.181 18.1492C106.325 18.0212 106.453 17.9252 106.565 17.8612C106.677 17.7812 106.845 17.7412 107.069 17.7412H109.301C109.461 17.7412 109.589 17.7892 109.685 17.8852C109.781 17.9812 109.829 18.1092 109.829 18.2692C109.829 18.3332 109.813 18.4052 109.781 18.4852C109.749 18.5652 109.685 18.6372 109.589 18.7012L104.645 23.3332L110.189 29.2852C110.349 29.4452 110.429 29.5812 110.429 29.6932C110.429 29.8532 110.373 29.9812 110.261 30.0772C110.165 30.1732 110.045 30.2212 109.901 30.2212H107.621C107.381 30.2212 107.205 30.1892 107.093 30.1252C106.997 30.0452 106.877 29.9412 106.733 29.8132L102.149 24.9892V29.6452C102.149 29.8052 102.093 29.9412 101.981 30.0532C101.885 30.1652 101.749 30.2212 101.573 30.2212H99.6293ZM112.801 30.2212C112.641 30.2212 112.505 30.1652 112.393 30.0532C112.281 29.9412 112.225 29.8052 112.225 29.6452V18.3172C112.225 18.1572 112.281 18.0212 112.393 17.9092C112.505 17.7972 112.641 17.7412 112.801 17.7412H114.793C114.969 17.7412 115.105 17.7972 115.201 17.9092C115.313 18.0212 115.369 18.1572 115.369 18.3172V29.6452C115.369 29.8052 115.313 29.9412 115.201 30.0532C115.105 30.1652 114.969 30.2212 114.793 30.2212H112.801ZM112.705 15.6772C112.529 15.6772 112.385 15.6292 112.273 15.5332C112.177 15.4212 112.129 15.2772 112.129 15.1012V13.3732C112.129 13.2132 112.177 13.0772 112.273 12.9652C112.385 12.8532 112.529 12.7972 112.705 12.7972H114.889C115.065 12.7972 115.209 12.8532 115.321 12.9652C115.433 13.0772 115.489 13.2132 115.489 13.3732V15.1012C115.489 15.2772 115.433 15.4212 115.321 15.5332C115.209 15.6292 115.065 15.6772 114.889 15.6772H112.705ZM119.621 30.2212C119.461 30.2212 119.325 30.1652 119.213 30.0532C119.101 29.9412 119.045 29.8052 119.045 29.6452V18.3172C119.045 18.1572 119.101 18.0212 119.213 17.9092C119.325 17.7972 119.461 17.7412 119.621 17.7412H121.589C121.749 17.7412 121.885 17.7972 121.997 17.9092C122.109 18.0212 122.165 18.1572 122.165 18.3172V19.3012C122.581 18.7892 123.109 18.3652 123.749 18.0292C124.405 17.6772 125.213 17.5012 126.173 17.5012C127.149 17.5012 127.997 17.7252 128.717 18.1732C129.437 18.6052 129.989 19.2212 130.373 20.0212C130.773 20.8212 130.973 21.7812 130.973 22.9012V29.6452C130.973 29.8052 130.917 29.9412 130.805 30.0532C130.693 30.1652 130.557 30.2212 130.397 30.2212H128.285C128.125 30.2212 127.989 30.1652 127.877 30.0532C127.765 29.9412 127.709 29.8052 127.709 29.6452V23.0452C127.709 22.1172 127.477 21.3892 127.013 20.8612C126.565 20.3332 125.909 20.0692 125.045 20.0692C124.213 20.0692 123.549 20.3332 123.053 20.8612C122.557 21.3892 122.309 22.1172 122.309 23.0452V29.6452C122.309 29.8052 122.253 29.9412 122.141 30.0532C122.029 30.1652 121.893 30.2212 121.733 30.2212H119.621ZM139.662 35.5012C138.494 35.5012 137.534 35.3492 136.782 35.0452C136.03 34.7412 135.438 34.3732 135.006 33.9412C134.574 33.5092 134.262 33.0772 134.07 32.6452C133.894 32.2292 133.798 31.9012 133.782 31.6612C133.766 31.5012 133.814 31.3572 133.926 31.2292C134.054 31.1172 134.198 31.0612 134.358 31.0612H136.446C136.606 31.0612 136.734 31.0932 136.83 31.1572C136.926 31.2372 137.006 31.3732 137.07 31.5652C137.166 31.7732 137.294 31.9972 137.454 32.2372C137.614 32.4772 137.854 32.6772 138.174 32.8372C138.51 33.0132 138.966 33.1012 139.542 33.1012C140.15 33.1012 140.662 33.0132 141.078 32.8372C141.494 32.6612 141.806 32.3652 142.014 31.9492C142.238 31.5332 142.35 30.9572 142.35 30.2212V28.5892C141.966 29.0532 141.47 29.4292 140.862 29.7172C140.27 30.0052 139.534 30.1492 138.654 30.1492C137.79 30.1492 137.046 30.0132 136.422 29.7412C135.798 29.4532 135.278 29.0612 134.862 28.5652C134.446 28.0532 134.126 27.4532 133.902 26.7652C133.694 26.0772 133.574 25.3172 133.542 24.4852C133.526 24.0532 133.526 23.6212 133.542 23.1892C133.574 22.3892 133.694 21.6452 133.902 20.9572C134.11 20.2692 134.422 19.6692 134.838 19.1572C135.27 18.6292 135.798 18.2212 136.422 17.9332C137.046 17.6452 137.79 17.5012 138.654 17.5012C139.566 17.5012 140.334 17.6772 140.958 18.0292C141.582 18.3652 142.094 18.7892 142.494 19.3012V18.3412C142.494 18.1652 142.55 18.0212 142.662 17.9092C142.774 17.7972 142.91 17.7412 143.07 17.7412H145.014C145.174 17.7412 145.31 17.7972 145.422 17.9092C145.534 18.0212 145.59 18.1652 145.59 18.3412L145.614 29.9092C145.614 31.0612 145.398 32.0532 144.966 32.8852C144.534 33.7172 143.878 34.3572 142.998 34.8052C142.134 35.2692 141.022 35.5012 139.662 35.5012ZM139.542 27.6052C140.198 27.6052 140.726 27.4612 141.126 27.1732C141.526 26.8852 141.822 26.5092 142.014 26.0452C142.206 25.5812 142.318 25.1092 142.35 24.6292C142.366 24.4212 142.374 24.1572 142.374 23.8372C142.374 23.5172 142.366 23.2612 142.35 23.0692C142.318 22.5732 142.206 22.1012 142.014 21.6532C141.822 21.1892 141.526 20.8132 141.126 20.5252C140.726 20.2212 140.198 20.0692 139.542 20.0692C138.886 20.0692 138.358 20.2212 137.958 20.5252C137.558 20.8132 137.27 21.1972 137.094 21.6772C136.934 22.1572 136.838 22.6852 136.806 23.2612C136.774 23.6452 136.774 24.0372 136.806 24.4372C136.838 24.9972 136.934 25.5252 137.094 26.0212C137.27 26.5012 137.558 26.8852 137.958 27.1732C138.358 27.4612 138.886 27.6052 139.542 27.6052Z" fill="#555555"/>
<path d="M5.96954 7.1676C6.61481 7.1676 7.14111 6.6413 7.14111 5.99603C7.14111 5.35077 6.61481 4.82446 5.96954 4.82446C5.32428 4.82446 4.79797 5.35077 4.79797 5.99603C4.79797 6.6449 5.32428 7.1676 5.96954 7.1676Z" fill="#85B839"/>
<path d="M9.59605 25.0045V27.2539C11.4201 25.9309 13.5974 25.2064 15.8937 25.2064C18.1864 25.2064 20.3673 25.9309 22.1913 27.2539V25.0045C22.1913 23.1156 23.1394 21.4465 24.5777 20.4408C24.4552 18.0688 22.4941 16.1763 20.0933 16.1763H11.6941C9.29325 16.1763 7.33222 18.0688 7.20966 20.4408C8.64798 21.4465 9.59605 23.1156 9.59605 25.0045Z" fill="#85B839"/>
<path d="M22.8222 12.7517H8.91473V14.6478H22.8222V12.7517Z" fill="#85B839"/>
<path d="M22.1913 29.2474C20.4754 27.6397 18.2548 26.7493 15.8937 26.7493C13.5325 26.7493 11.3119 27.6397 9.59601 29.2474V31.3022H22.1913V29.2474Z" fill="#85B839"/>
<path d="M25.551 7.1676C26.1963 7.1676 26.7226 6.6413 26.7226 5.99603C26.7226 5.35077 26.1963 4.82446 25.551 4.82446C24.9058 4.82446 24.3795 5.35077 24.3795 5.99603C24.3795 6.6449 24.9058 7.1676 25.551 7.1676Z" fill="#85B839"/>
<path d="M15.9117 3.99906C16.9535 3.99906 17.8006 3.15192 17.8006 2.11012C17.8006 1.06833 16.9535 0.221191 15.9117 0.221191C14.8699 0.221191 14.0228 1.06833 14.0228 2.11012C14.0228 3.15192 14.8699 3.99906 15.9117 3.99906Z" fill="#85B839"/>
<path d="M27.7608 20.9778C25.5402 20.9778 23.7342 22.7838 23.7342 25.0044V32.8413H8.05319V25.0044C8.05319 22.7838 6.24717 20.9778 4.0266 20.9778C1.80602 20.9778 0 22.7838 0 25.0044C0 27.225 1.80602 29.031 4.0266 29.031H4.79803V36.1001H26.9894V29.031H27.7608C29.9814 29.031 31.7874 27.225 31.7874 25.0044C31.7874 22.7838 29.9814 20.9778 27.7608 20.9778ZM4.0266 26.2553C3.33447 26.2553 2.77572 25.6965 2.77572 25.0044C2.77572 24.3123 3.33807 23.7535 4.0266 23.7535C4.71872 23.7535 5.27747 24.3123 5.27747 25.0044C5.27747 25.6965 4.71872 26.2553 4.0266 26.2553ZM27.7608 26.2553C27.0687 26.2553 26.5099 25.6965 26.5099 25.0044C26.5099 24.3123 27.0687 23.7535 27.7608 23.7535C28.4529 23.7535 29.0117 24.3123 29.0117 25.0044C29.0117 25.6965 28.4529 26.2553 27.7608 26.2553Z" fill="#85B839"/>
<path d="M8.69839 11.2087H23.0348C23.8171 10.3616 24.383 9.36665 24.6966 8.2816C23.7702 8.76825 22.732 9.03861 21.665 9.03861C19.138 9.03861 16.9499 7.59668 15.8648 5.49146C14.7797 7.59307 12.588 9.03861 10.0646 9.03861C8.99398 9.03861 7.9594 8.77906 7.03656 8.29602C7.35739 9.37386 7.91974 10.3652 8.69839 11.2087Z" fill="#85B839"/>
<path d="M9.59609 37.6431H8.05322V39.1859H9.59609V37.6431Z" fill="#85B839"/>
<path d="M23.7342 37.6431H22.1913V39.1859H23.7342V37.6431Z" fill="#85B839"/>
</svg>
